<svg xmlns="http://www.w3.org/2000/svg" viewBox="0 0 1200 630" width="1200" height="630">
  <defs>
    <linearGradient id="bg" x1="0" y1="0" x2="1" y2="1">
      <stop offset="0%" stop-color="#0A0A0B"/>
      <stop offset="100%" stop-color="#0f0f14"/>
    </linearGradient>
    <linearGradient id="green" x1="0" y1="0" x2="0" y2="1">
      <stop offset="0%" stop-color="oklch(0.78 0.18 152)" stop-opacity="0.9"/>
      <stop offset="100%" stop-color="oklch(0.78 0.18 152)" stop-opacity="0.2"/>
    </linearGradient>
    <linearGradient id="red" x1="0" y1="0" x2="0" y2="1">
      <stop offset="0%" stop-color="oklch(0.70 0.21 25)" stop-opacity="0.9"/>
      <stop offset="100%" stop-color="oklch(0.70 0.21 25)" stop-opacity="0.2"/>
    </linearGradient>
    <linearGradient id="equity" x1="0" y1="0" x2="1" y2="0">
      <stop offset="0%" stop-color="oklch(0.74 0.16 250)"/>
      <stop offset="100%" stop-color="oklch(0.84 0.14 175)"/>
    </linearGradient>
    <linearGradient id="equityFill" x1="0" y1="0" x2="0" y2="1">
      <stop offset="0%" stop-color="oklch(0.74 0.16 250)" stop-opacity="0.25"/>
      <stop offset="100%" stop-color="oklch(0.74 0.16 250)" stop-opacity="0"/>
    </linearGradient>
    <filter id="glow">
      <feGaussianBlur stdDeviation="8" result="blur"/>
      <feMerge><feMergeNode in="blur"/><feMergeNode in="SourceGraphic"/></feMerge>
    </filter>
    <filter id="blur40">
      <feGaussianBlur stdDeviation="40"/>
    </filter>
    <clipPath id="card1clip">
      <rect x="36" y="96" width="460" height="502" rx="20"/>
    </clipPath>
    <clipPath id="card2clip">
      <rect x="516" y="96" width="320" height="240" rx="20"/>
    </clipPath>
    <clipPath id="card3clip">
      <rect x="516" y="356" width="320" height="242" rx="20"/>
    </clipPath>
    <clipPath id="card4clip">
      <rect x="856" y="96" width="308" height="502" rx="20"/>
    </clipPath>
  </defs>

  <!-- Background -->
  <rect width="1200" height="630" fill="url(#bg)"/>

  <!-- Ambient orbs -->
  <circle cx="200" cy="100" r="280" fill="oklch(0.55 0.22 252)" filter="url(#blur40)" opacity="0.18"/>
  <circle cx="1000" cy="530" r="220" fill="oklch(0.68 0.18 175)" filter="url(#blur40)" opacity="0.14"/>
  <circle cx="620" cy="320" r="180" fill="oklch(0.45 0.20 268)" filter="url(#blur40)" opacity="0.10"/>

  <!-- ── CARD 1: Main stats + equity curve ── -->
  <rect x="36" y="96" width="460" height="502" rx="20" fill="#131317" stroke="rgba(255,255,255,0.07)" stroke-width="1"/>

  <!-- Equity curve area fill -->
  <path d="M56,480 C80,480 90,465 110,455 S140,440 160,420 S190,395 210,370 S245,335 265,305 S295,270 320,250 S355,220 380,195 S415,165 450,148 L450,510 L56,510 Z"
        fill="url(#equityFill)" clip-path="url(#card1clip)"/>
  <!-- Equity curve line -->
  <path d="M56,480 C80,480 90,465 110,455 S140,440 160,420 S190,395 210,370 S245,335 265,305 S295,270 320,250 S355,220 380,195 S415,165 450,148"
        fill="none" stroke="url(#equity)" stroke-width="2.5" stroke-linecap="round" filter="url(#glow)" clip-path="url(#card1clip)"/>

  <!-- Card 1 header -->
  <text x="56" y="130" font-family="'SF Mono', 'Geist Mono', monospace" font-size="9" fill="rgba(255,255,255,0.35)" letter-spacing="2">EQUITY CURVE</text>
  <text x="56" y="82" font-family="'SF Pro Display', 'Geist', system-ui, sans-serif" font-size="13" fill="rgba(255,255,255,0.5)" letter-spacing="1.5">KŌDA</text>

  <!-- Win rate ring placeholder -->
  <circle cx="90" cy="500" r="0" fill="none"/>

  <!-- Stats row in card 1 -->
  <rect x="56" y="520" width="100" height="58" rx="10" fill="#1A1A20"/>
  <text x="106" y="545" text-anchor="middle" font-family="'SF Mono', 'Geist Mono', monospace" font-size="9" fill="rgba(255,255,255,0.4)" letter-spacing="1.5">WIN RATE</text>
  <text x="106" y="565" text-anchor="middle" font-family="'SF Pro Display', 'Geist', system-ui, sans-serif" font-size="18" font-weight="700" fill="oklch(0.78 0.18 152)">68%</text>

  <rect x="166" y="520" width="100" height="58" rx="10" fill="#1A1A20"/>
  <text x="216" y="545" text-anchor="middle" font-family="'SF Mono', 'Geist Mono', monospace" font-size="9" fill="rgba(255,255,255,0.4)" letter-spacing="1.5">AVG R</text>
  <text x="216" y="565" text-anchor="middle" font-family="'SF Pro Display', 'Geist', system-ui, sans-serif" font-size="18" font-weight="700" fill="oklch(0.78 0.18 152)">+1.8R</text>

  <rect x="276" y="520" width="100" height="58" rx="10" fill="#1A1A20"/>
  <text x="326" y="545" text-anchor="middle" font-family="'SF Mono', 'Geist Mono', monospace" font-size="9" fill="rgba(255,255,255,0.4)" letter-spacing="1.5">TRADES</text>
  <text x="326" y="565" text-anchor="middle" font-family="'SF Pro Display', 'Geist', system-ui, sans-serif" font-size="18" font-weight="700" fill="rgba(255,255,255,0.9)">142</text>

  <rect x="386" y="520" width="88" height="58" rx="10" fill="#1A1A20"/>
  <text x="430" y="545" text-anchor="middle" font-family="'SF Mono', 'Geist Mono', monospace" font-size="9" fill="rgba(255,255,255,0.4)" letter-spacing="1.5">STREAK</text>
  <text x="430" y="565" text-anchor="middle" font-family="'SF Pro Display', 'Geist', system-ui, sans-serif" font-size="18" font-weight="700" fill="oklch(0.78 0.18 152)">5W</text>

  <!-- ── CARD 2: Recent trades ── -->
  <rect x="516" y="96" width="320" height="240" rx="20" fill="#131317" stroke="rgba(255,255,255,0.07)" stroke-width="1"/>
  <text x="536" y="126" font-family="'SF Mono', 'Geist Mono', monospace" font-size="9" fill="rgba(255,255,255,0.35)" letter-spacing="2">RECENT TRADES</text>

  <!-- Trade rows -->
  <!-- Row 1 -->
  <rect x="516" y="136" width="320" height="1" fill="rgba(255,255,255,0.06)"/>
  <text x="536" y="158" font-family="'SF Pro Display', 'Geist', system-ui, sans-serif" font-size="13" font-weight="600" fill="rgba(255,255,255,0.9)">NQ</text>
  <text x="536" y="172" font-family="'SF Mono', 'Geist Mono', monospace" font-size="9" fill="rgba(255,255,255,0.35)">NY · Long</text>
  <text x="816" y="158" text-anchor="end" font-family="'SF Mono', 'Geist Mono', monospace" font-size="12" font-weight="600" fill="oklch(0.78 0.18 152)">+$312</text>
  <text x="816" y="172" text-anchor="end" font-family="'SF Mono', 'Geist Mono', monospace" font-size="9" fill="oklch(0.78 0.18 152)">+2.1R</text>

  <!-- Row 2 -->
  <rect x="516" y="183" width="320" height="1" fill="rgba(255,255,255,0.06)"/>
  <text x="536" y="205" font-family="'SF Pro Display', 'Geist', system-ui, sans-serif" font-size="13" font-weight="600" fill="rgba(255,255,255,0.9)">ES</text>
  <text x="536" y="219" font-family="'SF Mono', 'Geist Mono', monospace" font-size="9" fill="rgba(255,255,255,0.35)">London · Short</text>
  <text x="816" y="205" text-anchor="end" font-family="'SF Mono', 'Geist Mono', monospace" font-size="12" font-weight="600" fill="oklch(0.70 0.21 25)">-$125</text>
  <text x="816" y="219" text-anchor="end" font-family="'SF Mono', 'Geist Mono', monospace" font-size="9" fill="oklch(0.70 0.21 25)">-1.0R</text>

  <!-- Row 3 -->
  <rect x="516" y="230" width="320" height="1" fill="rgba(255,255,255,0.06)"/>
  <text x="536" y="252" font-family="'SF Pro Display', 'Geist', system-ui, sans-serif" font-size="13" font-weight="600" fill="rgba(255,255,255,0.9)">CL</text>
  <text x="536" y="266" font-family="'SF Mono', 'Geist Mono', monospace" font-size="9" fill="rgba(255,255,255,0.35)">NY · Long</text>
  <text x="816" y="252" text-anchor="end" font-family="'SF Mono', 'Geist Mono', monospace" font-size="12" font-weight="600" fill="oklch(0.78 0.18 152)">+$187</text>
  <text x="816" y="266" text-anchor="end" font-family="'SF Mono', 'Geist Mono', monospace" font-size="9" fill="oklch(0.78 0.18 152)">+1.4R</text>

  <!-- Row 4 -->
  <rect x="516" y="277" width="320" height="1" fill="rgba(255,255,255,0.06)"/>
  <text x="536" y="299" font-family="'SF Pro Display', 'Geist', system-ui, sans-serif" font-size="13" font-weight="600" fill="rgba(255,255,255,0.9)">MNQ</text>
  <text x="536" y="313" font-family="'SF Mono', 'Geist Mono', monospace" font-size="9" fill="rgba(255,255,255,0.35)">NY · Long</text>
  <text x="816" y="299" text-anchor="end" font-family="'SF Mono', 'Geist Mono', monospace" font-size="12" font-weight="600" fill="oklch(0.78 0.18 152)">+$94</text>
  <text x="816" y="313" text-anchor="end" font-family="'SF Mono', 'Geist Mono', monospace" font-size="9" fill="oklch(0.78 0.18 152)">+0.8R</text>

  <!-- ── CARD 3: Session breakdown ── -->
  <rect x="516" y="356" width="320" height="242" rx="20" fill="#131317" stroke="rgba(255,255,255,0.07)" stroke-width="1"/>
  <text x="536" y="386" font-family="'SF Mono', 'Geist Mono', monospace" font-size="9" fill="rgba(255,255,255,0.35)" letter-spacing="2">SESSION BREAKDOWN</text>

  <!-- Session bars -->
  <!-- NY -->
  <rect x="536" y="406" width="280" height="1" fill="rgba(255,255,255,0.06)"/>
  <text x="536" y="428" font-family="'SF Pro Display', 'Geist', system-ui, sans-serif" font-size="13" font-weight="600" fill="rgba(255,255,255,0.9)">NY</text>
  <text x="536" y="443" font-family="'SF Mono', 'Geist Mono', monospace" font-size="9" fill="rgba(255,255,255,0.35)">84 trades</text>
  <text x="816" y="428" text-anchor="end" font-family="'SF Mono', 'Geist Mono', monospace" font-size="12" font-weight="600" fill="oklch(0.78 0.18 152)">71%</text>
  <!-- Bar -->
  <rect x="536" y="450" width="280" height="4" rx="2" fill="rgba(255,255,255,0.08)"/>
  <rect x="536" y="450" width="198" height="4" rx="2" fill="oklch(0.78 0.18 152)"/>

  <!-- London -->
  <rect x="536" y="464" width="280" height="1" fill="rgba(255,255,255,0.06)"/>
  <text x="536" y="486" font-family="'SF Pro Display', 'Geist', system-ui, sans-serif" font-size="13" font-weight="600" fill="rgba(255,255,255,0.9)">London</text>
  <text x="536" y="501" font-family="'SF Mono', 'Geist Mono', monospace" font-size="9" fill="rgba(255,255,255,0.35)">38 trades</text>
  <text x="816" y="486" text-anchor="end" font-family="'SF Mono', 'Geist Mono', monospace" font-size="12" font-weight="600" fill="rgba(255,255,255,0.6)">58%</text>
  <rect x="536" y="508" width="280" height="4" rx="2" fill="rgba(255,255,255,0.08)"/>
  <rect x="536" y="508" width="162" height="4" rx="2" fill="oklch(0.74 0.16 250)"/>

  <!-- Asia -->
  <rect x="536" y="522" width="280" height="1" fill="rgba(255,255,255,0.06)"/>
  <text x="536" y="544" font-family="'SF Pro Display', 'Geist', system-ui, sans-serif" font-size="13" font-weight="600" fill="rgba(255,255,255,0.9)">Asia</text>
  <text x="536" y="559" font-family="'SF Mono', 'Geist Mono', monospace" font-size="9" fill="rgba(255,255,255,0.35)">20 trades</text>
  <text x="816" y="544" text-anchor="end" font-family="'SF Mono', 'Geist Mono', monospace" font-size="12" font-weight="600" fill="rgba(255,255,255,0.6)">45%</text>
  <rect x="536" y="566" width="280" height="4" rx="2" fill="rgba(255,255,255,0.08)"/>
  <rect x="536" y="566" width="126" height="4" rx="2" fill="oklch(0.70 0.21 25)"/>

  <!-- ── CARD 4: Hero / branding ── -->
  <rect x="856" y="96" width="308" height="502" rx="20" fill="#131317" stroke="rgba(255,255,255,0.07)" stroke-width="1"/>

  <!-- Big P&L number -->
  <text x="1010" y="210" text-anchor="middle" font-family="'SF Mono', 'Geist Mono', monospace" font-size="9" fill="rgba(255,255,255,0.35)" letter-spacing="2">ALL-TIME P&amp;L</text>
  <text x="1010" y="265" text-anchor="middle" font-family="'SF Pro Display', 'Geist', system-ui, sans-serif" font-size="52" font-weight="700" fill="oklch(0.78 0.18 152)" letter-spacing="-2">+47.2R</text>

  <!-- Discipline score -->
  <rect x="876" y="290" width="268" height="80" rx="14" fill="#1A1A20"/>
  <circle cx="910" cy="330" r="24" fill="none" stroke="oklch(0.78 0.18 152)" stroke-width="3"/>
  <text x="910" y="335" text-anchor="middle" font-family="'SF Pro Display', 'Geist', system-ui, sans-serif" font-size="12" font-weight="700" fill="oklch(0.78 0.18 152)">82%</text>
  <text x="946" y="322" font-family="'SF Mono', 'Geist Mono', monospace" font-size="9" fill="rgba(255,255,255,0.35)" letter-spacing="1.5">DISCIPLINE</text>
  <text x="946" y="338" font-family="'SF Pro Display', 'Geist', system-ui, sans-serif" font-size="14" font-weight="600" fill="rgba(255,255,255,0.9)">Excellent</text>
  <text x="946" y="356" font-family="'SF Mono', 'Geist Mono', monospace" font-size="9" fill="rgba(255,255,255,0.35)">This month</text>

  <!-- Weekly P&L bars -->
  <text x="876" y="402" font-family="'SF Mono', 'Geist Mono', monospace" font-size="9" fill="rgba(255,255,255,0.35)" letter-spacing="2">WEEKLY P&amp;L</text>
  <!-- 8 weeks of bars -->
  <rect x="876" y="440" width="28" height="60" rx="4" fill="oklch(0.78 0.18 152)" opacity="0.7"/>
  <rect x="914" y="455" width="28" height="45" rx="4" fill="oklch(0.78 0.18 152)" opacity="0.7"/>
  <rect x="952" y="470" width="28" height="30" rx="4" fill="oklch(0.70 0.21 25)" opacity="0.7"/>
  <rect x="990" y="430" width="28" height="70" rx="4" fill="oklch(0.78 0.18 152)" opacity="0.9"/>
  <rect x="1028" y="448" width="28" height="52" rx="4" fill="oklch(0.78 0.18 152)" opacity="0.7"/>
  <rect x="1066" y="462" width="28" height="38" rx="4" fill="oklch(0.70 0.21 25)" opacity="0.7"/>
  <rect x="1104" y="445" width="28" height="55" rx="4" fill="oklch(0.78 0.18 152)" opacity="0.8"/>

  <!-- Brand + tagline -->
  <text x="876" y="555" font-family="'SF Pro Display', 'Geist', system-ui, sans-serif" font-size="28" font-weight="700" fill="rgba(255,255,255,0.95)" letter-spacing="-0.5">KŌDA</text>
  <text x="876" y="575" font-family="'SF Mono', 'Geist Mono', monospace" font-size="10" fill="rgba(255,255,255,0.4)" letter-spacing="1.5">TRADE SMARTER.</text>

  <!-- URL -->
  <text x="1144" y="575" text-anchor="end" font-family="'SF Mono', 'Geist Mono', monospace" font-size="9" fill="rgba(255,255,255,0.25)" letter-spacing="1">tradrjournal.xyz</text>

</svg>
